<?xml version="1.0" encoding="UTF-8"?>
<svg id="Layer_1" xmlns="http://www.w3.org/2000/svg" version="1.1" viewBox="0 0 320 320">
  <!-- Generator: Adobe Illustrator 29.1.0, SVG Export Plug-In . SVG Version: 2.1.0 Build 142)  -->
  <defs>
    <style>
      .st0 {
        fill: #fff;
      }
    </style>
  </defs>
  <path d="M59.7,174c-4.8,0-9.7,0-14.6,0v-14.6s-14.6,0-14.6,0v-28h14.6s0-14.6,0-14.6h14.6s0-14.6,0-14.6h14.6s0-28,0-28h14.6v-15.7h13.5s0-13.5,0-13.5h29.1v13.5s14.6,0,14.6,0v15.7h28v-15.7h14.6s0-13.5,0-13.5h29.1v13.5s13.5,0,13.5,0v15.7h14.6v28h14.6s0,14.6,0,14.6h14.6s0,14.6,0,14.6h14.6s0,28,0,28h-14.6s0,14.6,0,14.6c-4.8,0-9.7,0-14.6,0s-14.4.5-14.6-.6v-13.9s14.6,0,14.6,0v-28h-14.6s0-14.6,0-14.6c-4.8,0-9.7,0-14.6,0,0-4.8,0-9.7,0-14.6h-42.6v14.6s-14.6,0-14.6,0v42.6c4.8,0,9.7,0,14.6,0v14.6h42.6v14.6c4.8,0,9.7,0,14.6,0v28s14.6,0,14.6,0v58.3H59.7v-58.3h14.6s0-28,0-28c4.8,0,9.7,0,14.6,0v-14.6s42.6,0,42.6,0c0-4.8,0-9.7,0-14.6,4.8,0,9.7,0,14.6,0v-42.6c-4.8,0-9.7,0-14.6,0,0-4.8,0-9.7,0-14.6h-42.6v14.6s-14.6,0-14.6,0v14.6s-14.6,0-14.6,0v28h14.6s0,13.9,0,13.9c-.2,1.2-12.5.6-14.6.6ZM174,174h-28v14.6s13.5,0,13.5,0v14.6s14.6,0,14.6,0v-29.1Z"/>
  <path class="st0" d="M59.7,174c2.1,0,14.4.5,14.6-.6v-13.9s-14.6,0-14.6,0v-28h14.6s0-14.6,0-14.6h14.6s0-14.6,0-14.6h42.6c0,4.8,0,9.7,0,14.6,4.8,0,9.7,0,14.6,0v42.6c-4.8,0-9.7,0-14.6,0,.2-14.2.2-28.4,0-42.6h-14.6v28h-28v14.6c14.2-.1,28.4.1,42.6,0,0,4.8,0,9.7,0,14.6h-42.6v14.6c-4.8,0-9.7,0-14.6,0-4.8,0-9.7,0-14.6,0v-14.6Z"/>
  <path class="st0" d="M188.6,159.4c-4.8,0-9.7,0-14.6,0v-42.6h14.6s0-14.6,0-14.6h42.6c0,4.8,0,9.7,0,14.6,4.8,0,9.7,0,14.6,0v14.6s14.6,0,14.6,0v28h-14.6s0,13.9,0,13.9c.2,1.2,12.5.6,14.6.6v14.6c-4.8,0-9.7,0-14.6,0-4.8,0-9.7,0-14.6,0v-14.6s-42.6,0-42.6,0v-14.6c14.2.2,28.4-.1,42.6,0-.1-14.2.1-28.4,0-42.6-4.5,0-9,0-13.5,0v28h-29.1c0,4.8,0,9.7,0,14.6Z"/>
  <polygon class="st0" points="174 174 174 203.2 159.4 203.2 159.4 188.6 146 188.6 146 174 174 174"/>
  <path d="M131.4,116.8c.2,14.2.2,28.4,0,42.6-14.2.2-28.4-.1-42.6,0v-14.6h28v-28h14.6Z"/>
  <path d="M231.2,116.8c.2,14.2-.1,28.4,0,42.6-14.2-.1-28.4.1-42.6,0,0-4.8,0-9.7,0-14.6h29.1v-28c4.5,0,9,0,13.5,0Z"/>
</svg>